# xmcd
#
# Track frame offsets: 
#        183
#        13345
#        38108
#        62540
#        78208
#        97740
#        122805
#        141203
#        172843
#
# Disc length: 2664 seconds
#
# Revision: 7
# Processed by: cddbd v1.5.2PL0 Copyright (c) Steve Scherf et al.
# Submitted via: ExactAudioCopyFreeDBPlugin 1.0
#
DISCID=670a6609
DTITLE=Hans Söllner - Hey Staat!
DYEAR=1989
DGENRE=Folk
TTITLE0=Der deutsche Tourist (Mei Nega)
TTITLE1=Mir san nu so richtige Bayern
TTITLE2=Marijuhana für'n Herrn Zimmermann (Für die Mama)
TTITLE3=Ein Lied für Berchtesgaden
TTITLE4=Der Huaba
TTITLE5=Aba olle samme Wixa
TTITLE6=Die Jenny hot an Job kriagt
TTITLE7=Hey Staat!
TTITLE8=I mechat so gern
EXTD=Year: 1989
EXTT0=
EXTT1=
EXTT2=
EXTT3=
EXTT4=
EXTT5=
EXTT6=
EXTT7=
EXTT8=
PLAYORDER=
